# xmcd
#
# Track frame offsets:
#	150
#	900
#	1650
#	2400
#	3150
#	3900
#	4650
#	5400
#	6150
#	6900
#	7650
#	8400
#	9150
#	9900
#	10650
#	11400
#	12150
#	336642
#
# Disc length: 4795 seconds
#
# Revision: 1
# Processed by: cddbd v1.5PL3 Copyright (c) Steve Scherf et al.
# Submitted via: EasyCDDAExtractor 7.0.5.1
#
DISCID=8312b912
DTITLE=Carlos Paião - Letra e Música - 15 anos depois
DYEAR=2003
DGENRE=Pop
TTITLE0=Pó de Arroz
TTITLE1=Discoteca
TTITLE2=Quando as Nuvens Chorarem
TTITLE3=Versos de Amor
TTITLE4=Mar de Rosas
TTITLE5=A Razão
TTITLE6=Cegonha
TTITLE7=Os Namorados
TTITLE8=História Linda
TTITLE9=Caiu Redonda No Chão
TTITLE10=Canção dos Cinco Dedos
TTITLE11=Arco Íris
TTITLE12=Lobo do Mar
TTITLE13=Intervalo
TTITLE14=Bailarina (Nunca Te Direi)
TTITLE15=De Mão em Mão
TTITLE16=Caminhar
TTITLE17=Traco Extra
EXTD=
EXTT0=
EXTT1=
EXTT2=
EXTT3=
EXTT4=
EXTT5=
EXTT6=
EXTT7=
EXTT8=
EXTT9=
EXTT10=
EXTT11=
EXTT12=
EXTT13=
EXTT14=
EXTT15=
EXTT16=
EXTT17=
PLAYORDER=
